#!OML:ASF E:\Steps\Project 1\Capture day 1\Session 2\Subject.ASF
:FULLY-SPECIFIED
:DEGREES
229
root 16.2954 15.7809 20.3599 -167.947 -12.9611 166.482
lowerback -19.1679 -1.37189 -4.1326
upperback 3.01621 -0.710334 -1.17863
thorax 14.3112 -0.619248 0.79463
lowerneck -1.81886 4.91695 -1.72831
upperneck 14.8568 6.21681 -0.181363
head 4.70514 2.69979 0.488874
rclavicle 2.50469e-014 -6.99722e-014
rhumerus -36.8743 -15.7953 -75.4076
rradius 35.3981
rwrist -1.95816
rhand -8.4318 -415.026
rfingers 7.12502
rthumb 17.4933 -444.259
lclavicle 2.50469e-014 -6.99722e-014
lhumerus -35.5673 11.7873 75.2576
lradius 20.782
lwrist -7.70629
lhand -19.6025 -17.4389
lfingers 7.12502
lthumb 6.72358 12.4343
rfemur -13.3073 1.42318 11.6186
rtibia 35.6888
rfoot -38.0461 -13.8762
rtoes -24.2572
lfemur -72.3167 6.28727 -8.03247
ltibia 58.7167
lfoot 7.39677 8.97715
ltoes -14.9812
230
root 16.2577 15.7653 20.2959 -168.405 -12.7795 166.196
lowerback -19.1209 -1.41449 -4.18163
upperback 3.12561 -0.747691 -1.23345
thorax 14.415 -0.640103 0.746931
lowerneck -1.79314 4.95605 -1.70605
upperneck 14.9536 6.27524 -0.311683
head 4.73538 2.71547 0.448481
rclavicle -2.38542e-015 2.8625e-014
rhumerus -36.99 -15.7495 -75.2015
rradius 35.3154
rwrist -1.58127
rhand -8.27061 -415.084
rfingers 7.12502
rthumb 17.6484 -444.303
lclavicle -2.38542e-015 2.8625e-014
lhumerus -35.8313 11.6016 75.3043
lradius 21.0069
lwrist -7.43976
lhand -19.2847 -17.5917
lfingers 7.12502
lthumb 7.03036 12.2715
rfemur -12.554 1.50605 11.197
rtibia 35.8766
rfoot -38.3531 -13.8026
rtoes -24.1734
lfemur -71.2018 6.04174 -7.42844
ltibia 56.9942
lfoot 7.70884 9.5229
ltoes -16.4866
231
root 16.2237 15.7321 20.2395 -168.706 -12.6537 166.28
lowerback -19.1544 -1.3969 -3.89994
upperback 3.1469 -0.791003 -1.20529
thorax 14.4566 -0.637094 0.604591
lowerneck -1.81124 4.94391 -1.70645
upperneck 15.0349 6.25574 -0.328488
head 4.76407 2.70025 0.443977
rclavicle 8.74653e-015 -6.36111e-015
rhumerus -37.0903 -15.6192 -75.1124
rradius 35.6159
rwrist -1.67876
rhand -8.2296 -415.966
rfingers 7.12502
rthumb 17.6879 -445.181
lclavicle 8.74653e-015 -6.36111e-015
lhumerus -35.9827 11.7531 75.1817
lradius 21.0827
lwrist -7.49581
lhand -19.1376 -17.565
lfingers 7.12502
lthumb 7.17236 12.2934
rfemur -12.1431 1.87013 11.3054
rtibia 36.1635
rfoot -38.7472 -13.678
rtoes -23.2707
lfemur -70.5626 6.15706 -6.61085
ltibia 55.5191
lfoot 8.12336 9.91589
ltoes -17.8786
232
root 16.1882 15.7073 20.1861 -168.827 -12.3989 166.158
lowerback -19.3752 -1.38358 -4.06252
upperback 3.1753 -0.737016 -1.05476
thorax 14.6261 -0.635424 0.88062
lowerneck -1.87042 4.82463 -1.77175
upperneck 15.1662 6.12218 -0.567912
head 4.82124 2.60867 0.37833
rclavicle 6.75868e-015 9.54166e-015
rhumerus -37.1685 -15.2406 -74.7914
rradius 35.9038
rwrist -1.99247
rhand -8.17906 -416.186
rfingers 7.12502
rthumb 17.7365 -445.397
lclavicle 6.75868e-015 9.54166e-015
lhumerus -35.9268 12.0466 75.4021
lradius 21.1168
lwrist -7.85712
lhand -19.3139 -16.7911
lfingers 7.12502
lthumb 7.00219 13.0731
rfemur -12.076 2.32586 11.1653
rtibia 36.7505
rfoot -39.1937 -13.7939
rtoes -23.159
lfemur -69.9399 6.21111 -5.942
ltibia 53.9846
lfoot 8.2921 10.5054
ltoes -16.3408
